<svg xmlns="http://www.w3.org/2000/svg" width="48" height="48" viewBox="0 0 48 48"><g transform="translate(1573.452 -719.13)"><path style="line-height:normal;text-indent:0;text-align:start;text-decoration-line:none;text-decoration-style:solid;text-decoration-color:#000;text-transform:none;block-progression:tb;white-space:normal;isolation:auto;mix-blend-mode:normal;solid-color:#000;solid-opacity:1" fill="#5a3392" d="m -1523.3457,-284.98242 c -3.0648,0 -6.1306,0.78939 -8.877,2.37109 -5.4923,3.1644 -8.879,9.01836 -8.8808,15.35156 l 0,12.77344 2.6211,0 0,2.4375 -2.6211,0 0,1.36328 2.6211,0 0,2.4375 -2.6211,0 0,10.01758 a 0.750075,0.750075 0 0 0 1.2187,0.58399 l 4.4746,-3.58008 3.5254,3.52539 a 0.750075,0.750075 0 0 0 1.0606,0 l 3.4707,-3.46875 3.4687,3.46875 a 0.750075,0.750075 0 0 0 1.0606,0 l 3.4707,-3.46875 3.4687,3.46875 a 0.750075,0.750075 0 0 0 1.0606,0 l 3.5254,-3.52539 4.4765,3.58008 a 0.750075,0.750075 0 0 0 1.2188,-0.58399 l 0,-21.33203 -2.4121,0 0,-2.4375 2.4121,0 0,-1.36328 -2.4121,0 0,-2.4375 2.4121,0 0,-1.44336 c 0,-6.3328 -3.3793,-12.18862 -8.8692,-15.35742 -2.7446,-1.5848 -5.8081,-2.37906 -8.873,-2.38086 z" color="#000" enable-background="accumulate" font-family="sans-serif" font-weight="400" overflow="visible" transform="translate(-26.098 1004.362)"/><path style="line-height:normal;text-indent:0;text-align:start;text-decoration-line:none;text-decoration-style:solid;text-decoration-color:#000;text-transform:none;block-progression:tb;white-space:normal;isolation:auto;mix-blend-mode:normal;solid-color:#000;solid-opacity:1" fill="#fff" d="m -1549.4446,720.87974 c 2.8057,0 5.6112,0.72819 8.125,2.17969 5.0279,2.9022 8.1192,8.25899 8.1192,14.05859 l 0,27.45312 -3.7813,-3.02539 a 0.750075,0.750075 0 0 0 -1,0.0547 l -3.4687,3.4707 -3.4707,-3.4707 a 0.750075,0.750075 0 0 0 -1.0606,0 l -3.4687,3.4707 -3.4707,-3.4707 a 0.750075,0.750075 0 0 0 -1.0606,0 l -3.4687,3.4707 -3.4707,-3.4707 a 0.750075,0.750075 0 0 0 -0.9981,-0.0547 l -3.7812,3.02539 0,-27.46875 c 0,-5.799 3.0986,-11.15443 8.1289,-14.05273 2.5155,-1.4486 5.3212,-2.17162 8.1269,-2.16992 z" color="#000" enable-background="accumulate" font-family="sans-serif" font-weight="400" overflow="visible"/><path d="m -1549.445,722.55912 c 2.5924,0 5.1847,0.67284 7.5074,2.01402 4.6458,2.68162 7.5021,7.63127 7.5021,12.99007 l 0,25.36655 -3.4939,-2.79544 a 0.69306574,0.69306574 0 0 0 -0.924,0.0505 l -3.205,3.20691 -3.2069,-3.20691 a 0.69306574,0.69306574 0 0 0 -0.98,0 l -3.2051,3.20691 -3.2069,-3.20691 a 0.69306574,0.69306574 0 0 0 -0.98,0 l -3.2051,3.20691 -3.2069,-3.20691 a 0.69306574,0.69306574 0 0 0 -0.9222,-0.0505 l -3.4938,2.79544 0,-25.38099 c 0,-5.35825 2.8631,-10.30664 7.511,-12.98466 2.3244,-1.3385 4.9168,-2.00656 7.5093,-2.00499 z" style="line-height:normal;text-indent:0;text-align:start;text-decoration-line:none;text-decoration-style:solid;text-decoration-color:#000;text-transform:none;block-progression:tb;white-space:normal;isolation:auto;mix-blend-mode:normal;solid-color:#000;solid-opacity:1" fill="#ebfeff" color="#000" enable-background="accumulate" font-family="sans-serif" font-weight="400" overflow="visible"/><path style="line-height:normal;text-indent:0;text-align:start;text-decoration-line:none;text-decoration-style:solid;text-decoration-color:#000;text-transform:none;block-progression:tb;white-space:normal;isolation:auto;mix-blend-mode:normal;solid-color:#000;solid-opacity:1" fill="#5a3392" d="M-1542.4524 732.37891c-1.5105 0-2.75 1.2394-2.75 2.75l0 6c0 1.5105 1.2395 2.75 2.75 2.75l1 0c1.5106 0 2.75-1.2395 2.75-2.75l0-6c0-1.5106-1.2394-2.75-2.75-2.75l-1 0zM-1553.4524 732.37891c-1.5105 0-2.75 1.2394-2.75 2.75l0 6c0 1.5105 1.2395 2.75 2.75 2.75l1 0c1.5106 0 2.75-1.2395 2.75-2.75l0-6c0-1.5106-1.2394-2.75-2.75-2.75l-1 0z" color="#000" enable-background="accumulate" font-family="sans-serif" font-weight="400" overflow="visible"/><path style="line-height:normal;text-indent:0;text-align:start;text-decoration-line:none;text-decoration-style:solid;text-decoration-color:#000;text-transform:none;block-progression:tb;white-space:normal;isolation:auto;mix-blend-mode:normal;solid-color:#000;solid-opacity:1" fill="#5a3392" fill-rule="evenodd" d="m -1551.4387,752.37891 a 0.750075,0.750075 0 1 0 0,1.5 l 7.9727,0 a 0.750075,0.750075 0 1 0 0,-1.5 l -7.9727,0 z" color="#000" enable-background="accumulate" font-family="sans-serif" font-weight="400" overflow="visible"/><path d="m -1542.4524,733.87891 1,0 c 0.7055,0 1.25,0.5445 1.25,1.25 l 0,6 c 0,0.7054 -0.5445,1.25 -1.25,1.25 l -1,0 c -0.7054,0 -1.25,-0.5446 -1.25,-1.25 l 0,-6 c 0,-0.7055 0.5446,-1.25 1.25,-1.25 z" style="line-height:normal;text-indent:0;text-align:start;text-decoration-line:none;text-decoration-style:solid;text-decoration-color:#000;text-transform:none;block-progression:tb;white-space:normal;isolation:auto;mix-blend-mode:normal;solid-color:#000;solid-opacity:1" fill="#ee746c" color="#000" enable-background="accumulate" font-family="sans-serif" font-weight="400" overflow="visible"/><path style="line-height:normal;text-indent:0;text-align:start;text-decoration-line:none;text-decoration-style:solid;text-decoration-color:#000;text-transform:none;block-progression:tb;white-space:normal;isolation:auto;mix-blend-mode:normal;solid-color:#000;solid-opacity:1" fill="#fb9761" d="m -1542.3388,734.84487 0.7728,0 c 0.5451,0 0.9659,0.42074 0.9659,0.96589 l 0,4.6363 c 0,0.54507 -0.4208,0.96589 -0.9659,0.96589 l -0.7728,0 c -0.545,0 -0.9659,-0.42082 -0.9659,-0.96589 l 0,-4.6363 c 0,-0.54515 0.4209,-0.96589 0.9659,-0.96589 z" color="#000" enable-background="accumulate" font-family="sans-serif" font-weight="400" overflow="visible"/><g transform="translate(-11)"><path style="line-height:normal;text-indent:0;text-align:start;text-decoration-line:none;text-decoration-style:solid;text-decoration-color:#000;text-transform:none;block-progression:tb;white-space:normal;isolation:auto;mix-blend-mode:normal;solid-color:#000;solid-opacity:1" fill="#ee746c" d="m -1542.4524,733.87891 1,0 c 0.7055,0 1.25,0.5445 1.25,1.25 l 0,6 c 0,0.7054 -0.5445,1.25 -1.25,1.25 l -1,0 c -0.7054,0 -1.25,-0.5446 -1.25,-1.25 l 0,-6 c 0,-0.7055 0.5446,-1.25 1.25,-1.25 z" color="#000" enable-background="accumulate" font-family="sans-serif" font-weight="400" overflow="visible"/><path d="m -1542.3388,734.84487 0.7728,0 c 0.5451,0 0.9659,0.42074 0.9659,0.96589 l 0,4.6363 c 0,0.54507 -0.4208,0.96589 -0.9659,0.96589 l -0.7728,0 c -0.545,0 -0.9659,-0.42082 -0.9659,-0.96589 l 0,-4.6363 c 0,-0.54515 0.4209,-0.96589 0.9659,-0.96589 z" style="line-height:normal;text-indent:0;text-align:start;text-decoration-line:none;text-decoration-style:solid;text-decoration-color:#000;text-transform:none;block-progression:tb;white-space:normal;isolation:auto;mix-blend-mode:normal;solid-color:#000;solid-opacity:1" fill="#fb9761" color="#000" enable-background="accumulate" font-family="sans-serif" font-weight="400" overflow="visible"/></g></g></svg>